<svg width="735" height="735" xmlns="http://www.w3.org/2000/svg"><path d="m733 375-17 6.5-5.8 52 15 10-12 44-18 .92-22 48 11 14-26 38-17-4.4-35 39 5.7 16-36 29-14-9.2-46 26 .46 17-43 16-10-13-53 11-5 16-46 1.6-6-16-53-6.1-9.1 14-44-12-.91-17-48-22-13 10-38-26 4.1-17-39-36-16 5.7-29-36 9.1-14-26-46h-17l-16-43 12-11-10-51-17-5.1v-46l17-6.6 6.1-51-15-11 13-44 18-1 5-13 16-34-11-15 26-38 18 4.9 34-37-6.4-18 36-29 16 11 44-25-.55-20 43-16 12 15 50-9.9 5.6-19 46-1.6 7.1 18 50 5.8 12-17 44 12 1.1 20 46 21 16-12 38 26-5 19 37 35 18-6.5 29 36-10 16 25 44 21-.18 16 43-14 12 10 51 18 5.2zM610 511l.002-.003-5.3-8.4 4.1-7.3 9.2-.92 3.8-7.6-5.1-8 3.3-7.6 9.2-1.7 2.9-8-5.8-7.5 2.5-7.8 9.2-2.8 2.2-8.3-6.5-6.8 1.8-8.1 9.2-3.6 1.4-8.5-7.2-6.2.92-8.3 8.4-4.3.55-8.7-7.7-5.4v-8.3l7.8-5.2v-9.2l-8.2-4.6-.64-8.2 7.3-6-1.1-8.6-8.7-3.8-1.5-8.2 6.7-6.6-2-8.4-9.2-2.9-2.2-8 6-7.3-2.8-8.1-9.2-2-3.1-7.7 5.3-7.8-3.6-7.8-9.2-1.1-3.8-7.5 4.5-8.3-4.3-7.4h-9.2l-4.5-7 3.7-8.7-5.1-7-9.2.64-5.2-6.4 2.8-9.2-5.7-6.5-9.2 1.6-5.1-5.2 1.9-9.2-7.1-6.6-9.2 2.6-6.4-5.3 1-9.2-6.9-5.2-8.8 3.4-6.9-4.7v-9.2l-7.4-4.5-8.4 4.3-7.3-4.1-.92-9.2-7.6-3.8-8 5.1-7.6-3.3-1.8-9.2-8-3-7.6 5.9-7.8-2.6-2.8-9.2-8.3-2.2-6.8 6.5-8.1-1.7-3.6-9.2-8.5-1.4-6.2 7.1-8.3-.92-4.3-8.3-8.7-.55-5.4 7.6h-8.3l-5.2-7.8h-9.7l-4.6 8.2-8.3.74-5.9-7.3-8.6 1.1-3.8 8.7-8.2 1.5-6.6-6.7-8.4 1.9-2.9 9.2-8 2.3-7.3-6.1-8.1 2.9-2 9.2-7.7 3-7.8-5.2-7.8 3.6-1.1 9.2-7.5 3.9-8.3-4.5-7.5 4.3v9.2l-7 4.5-8.7-3.6-7 5 .64 9.2-6.4 5.2-9.2-2.8-6.5 5.7 1.6 9.2-6 5.7-9.2-1.8-6.6 7 2.6 9.2-5.4 6.4-9.2-.92-5.3 6.9 3.4 8.7-4.7 6.8h-9.2l-4.5 7.3 4.3 8.5-4.1 7.3-9.2.83v.002l-3.8 7.7 5.1 8-3.3 7.5-9.2 1.8-3 8 5.9 7.5-2.6 7.9-9.2 2.7-2.2 8.3 6.5 6.9-1.8 8.1-8.8 3.6-1.4 8.5 7.1 6.2-.92 8.2-8.3 4.4-.55 8.7 7.6 5.3v8.4l-7.8 5.2v9.2l8.2 4.6.74 8.3-7.4 6 .55 8.2 8.7 3.9 1.6 8-6.7 6.7 1.9 8.3 9.2 3 2.3 7.9-6 7.3 2.9 8.1 9.2 2.1 3 7.7-5.3 7.8 3.5 7.8 9.2 1.1 3.9 7.4-4.5 8.3 4.3 7.5h9.2l4.5 6.9-3.7 9.2 5.1 7 9.2-.74 5.2 6.5-2.8 9.2 5.7 6.5 9.2-1.7 5.7 6-1.8 9.2 7 6.5 9.2-2.5 6.4 5.3-.92 9.2 6.8 5.2 9.2-3.4 6.8 4.7v9.2l7.3 4.5 8.5-4.2 7.3 4.1.83 9.2 7.7 3.8 8.3-4.8 7.6 3.3 1.8 9.2 8 2.9 7.5-5.8 7.9 2.5 2.7 9.2 8.3 2.2 6.9-6.5 8.1 1.7 3.6 8.7 8.5 1.4 6.2-7.2 8.2.92 4.4 8.4 8.7.55 5.3-7.7h8.4l5.1 7.8h9.2l4.6-8.1 8.3-.74 6 7.3 8.5-1.1 3.9-8.7 8.1-1.5 6.7 6.7 8.3-2 3-9.2 7.9-2.3 7.4 5.2 8.1-2.8 2.1-9.2 7.7-3.1 7.8 5.3 7.8-3.6 1.1-9.2 7.4-3.8 8.3 4.5 7.5-4.3v-9.2l6.9-4.5 9.2 3.7 7-5-.74-9.2 6.5-5.2 9.2 2.9 6.5-5.8-1.7-9.2 6-5.8 9.2 1.9 6.5-7.1-2.5-9.2 5.3-6.4 9.2 1 5.3-6.9-3.4-8.7 4.7-6.8h9.2z" clip-rule="evenodd" fill="none" stroke="#4d7d8b" stroke-opacity=".5" stroke-width="2"/></svg>