<svg width="364" height="187" fill="none" xmlns="http://www.w3.org/2000/svg"><mask id="a" style="mask-type:alpha" maskUnits="userSpaceOnUse" x="0" y="0" width="364" height="187"><path fill="#D9D9D9" d="M0 0h364v187H0z"/></mask><g mask="url(#a)"><path opacity=".55" d="m381.47 0 118.659 177h-39.553L341.917 0h39.553Z" fill="url(#b)"/><path opacity=".45" d="m313.47 0 118.659 177h-39.553L273.917 0h39.553Z" fill="url(#c)"/><path opacity=".35" d="m245.239 0 118.659 177h-39.553L205.686 0h39.553Z" fill="url(#d)"/><path opacity=".25" d="m177.013 0 118.659 177h-39.553L137.46 0h39.553Z" fill="url(#e)"/><path opacity=".15" d="m108.782 0 118.659 177h-39.553L69.229 0h39.553Z" fill="url(#f)"/><path opacity=".05" d="M40.552 0 159.21 177h-39.553L.998 0h39.554Z" fill="url(#g)"/></g><defs><linearGradient id="b" x1="361" y1="0" x2="465" y2="151.5" gradientUnits="userSpaceOnUse"><stop offset="0" stop-color="#00ACFF"/><stop offset="1" stop-color="#00FFD6"/></linearGradient><linearGradient id="c" x1="293" y1="0" x2="397" y2="151.5" gradientUnits="userSpaceOnUse"><stop offset="0" stop-color="#00ACFF"/><stop offset="1" stop-color="#00FFD6"/></linearGradient><linearGradient id="d" x1="227" y1="0" x2="341.5" y2="177" gradientUnits="userSpaceOnUse"><stop stop-color="#00ACFF"/><stop offset="1" stop-color="#00FFD6"/></linearGradient><linearGradient id="e" x1="161" y1="0" x2="281" y2="177" gradientUnits="userSpaceOnUse"><stop stop-color="#00ACFF"/><stop offset="1" stop-color="#00FFD6"/></linearGradient><linearGradient id="f" x1="89" y1="0" x2="204" y2="177" gradientUnits="userSpaceOnUse"><stop stop-color="#00ACFF"/><stop offset="1" stop-color="#00FFD6"/></linearGradient><linearGradient id="g" x1="22" y1="0" x2="136.5" y2="177" gradientUnits="userSpaceOnUse"><stop stop-color="#00ACFF"/><stop offset="1" stop-color="#00FFD6"/></linearGradient></defs></svg>